<?xml version="1.0" encoding="UTF-8" standalone="no"?>
<!-- Generator: Adobe Illustrator 16.0.0, SVG Export Plug-In . SVG Version: 6.00 Build 0)  -->

<svg
	version="1.1"
	id="Layer_1"
	x="0px"
	y="0px"
	width="202"
	height="283"
	viewBox="0 0 202 283"
	enable-background="new 0 0 1400 980"
	xml:space="preserve"
	sodipodi:docname="Playing Card Back.svg"
	inkscape:version="1.3 (0e150ed6c4, 2023-07-21)"
	xmlns:inkscape="http://www.inkscape.org/namespaces/inkscape"
	xmlns:sodipodi="http://sodipodi.sourceforge.net/DTD/sodipodi-0.dtd"
	xmlns="http://www.w3.org/2000/svg"
	xmlns:svg="http://www.w3.org/2000/svg"><defs
   id="defs299" /><sodipodi:namedview
   id="namedview299"
   pagecolor="#ffffff"
   borderopacity="0.25"
   inkscape:showpageshadow="2"
   inkscape:pageopacity="0.0"
   inkscape:pagecheckerboard="0"
   inkscape:deskcolor="#d1d1d1"
   inkscape:zoom="1.8683673"
   inkscape:cx="6.6903332"
   inkscape:cy="121.22884"
   inkscape:window-width="3840"
   inkscape:window-height="2066"
   inkscape:window-x="-11"
   inkscape:window-y="-11"
   inkscape:window-maximized="1"
   inkscape:current-layer="g299" />&#10;<g
   id="g299">&#10;	&#10;	&#10;	&#10;	&#10;	&#10;	&#10;	&#10;	&#10;	&#10;	<g
   id="g298"
   transform="translate(-370.36479,-148.83104)">&#10;		<path
   d="m 572.111,159.439 c 0,-5.566 -4.513,-10.079 -10.078,-10.079 v 0 H 380.608 v 0 0 c -5.566,0 -10.079,4.513 -10.079,10.079 v 0 262.058 c 0,5.566 4.513,10.079 10.079,10.079 0.007,0 0.015,0 0.022,0 h 181.38 c 0.008,0 0.015,0 0.021,0 5.566,0 10.079,-4.513 10.079,-10.079 V 159.439 Z"
   id="path281" />&#10;		<g
   id="g297">&#10;			<g
   id="g287">&#10;				&#10;					<rect
   x="508.14899"
   y="279.879"
   transform="matrix(0.8091,0.5877,-0.5877,0.8091,283.5516,-238.3817)"
   fill="#ffffff"
   width="1.12"
   height="74.785004"
   id="rect281" />&#10;				<path
   fill="#ffffff"
   d="m 514.22,305.912 -0.907,-0.658 13.28,-18.319 c -1.044,-1.314 -4.016,-5.415 -13.281,-18.196 l 0.907,-0.657 c 0,0 13.357,18.427 13.473,18.583 l 0.24,0.329 -0.238,0.332 z"
   id="path282" />&#10;				<path
   fill="#ffffff"
   d="m 504.313,330.054 -0.906,-0.659 30.784,-42.463 c -1.118,-1.412 -4.449,-6.007 -15.298,-20.971 l -15.487,-21.364 0.907,-0.657 c 0.309,0.426 30.824,42.521 30.974,42.726 l 0.24,0.329 -0.238,0.331 z"
   id="path283" />&#10;				<path
   fill="#ffffff"
   d="m 511.898,313.824 -4.071,-5.614 15.426,-21.278 c -1.114,-1.406 -4.427,-5.975 -15.188,-20.82 l -0.238,-0.329 3.381,-4.662 c -0.938,-1.292 -1.92,-2.647 -2.951,-4.069 l -21.947,-30.275 0.906,-0.657 c 0.438,0.604 43.725,60.316 43.894,60.547 l 0.24,0.329 z m -2.687,-5.614 2.688,3.707 18.065,-24.92 -18.066,-24.922 -2.688,3.707 c 1.936,2.671 15.027,20.73 15.139,20.883 l 0.241,0.329 -0.238,0.331 z"
   id="path284" />&#10;				&#10;					<rect
   x="396.53799"
   y="316.711"
   transform="matrix(0.5869,0.8096,-0.8096,0.5869,436.1185,-220.2711)"
   fill="#ffffff"
   width="74.785004"
   height="1.119"
   id="rect284" />&#10;				<polygon
   fill="#ffffff"
   points="471.32,365.296 462.702,353.41 463.608,352.752 471.319,363.389 479.031,352.752 479.938,353.41 "
   id="polygon284" />&#10;				<polygon
   fill="#ffffff"
   points="471.32,375.564 462.217,363.01 463.123,362.351 471.319,373.657 479.517,362.351 480.423,363.01 "
   id="polygon285" />&#10;				<path
   fill="#ffffff"
   d="m 428.42,305.911 -13.713,-18.917 0.242,-0.33 c 0.115,-0.156 13.472,-18.583 13.472,-18.583 l 0.907,0.657 c -9.266,12.781 -12.237,16.882 -13.28,18.196 l 13.278,18.32 z"
   id="path285" />&#10;				<polygon
   fill="#ffffff"
   points="463.609,221.24 462.703,220.583 471.32,208.695 479.937,220.583 479.03,221.24 471.32,210.604 "
   id="polygon286" />&#10;				<path
   fill="#ffffff"
   d="m 438.326,330.054 -31.214,-43.058 0.24,-0.33 c 0.121,-0.166 30.975,-42.727 30.975,-42.727 l 0.906,0.657 -15.487,21.364 c -10.849,14.964 -14.179,19.559 -15.297,20.97 l 30.783,42.464 z"
   id="path286" />&#10;				<polygon
   fill="#ffffff"
   points="479.516,211.641 471.32,200.335 463.124,211.641 462.218,210.983 471.32,198.427 480.423,210.983 "
   id="polygon287" />&#10;				<path
   fill="#ffffff"
   d="m 430.741,313.824 -19.45,-26.828 0.24,-0.329 c 0.015,-0.021 0.504,-0.696 1.369,-1.89 l 16.289,-22.47 c 12.198,-16.826 26.235,-36.189 26.235,-36.189 l 0.907,0.657 -21.948,30.275 c -1.03,1.422 -2.013,2.777 -2.95,4.07 l 3.38,4.661 -0.238,0.329 c -10.763,14.846 -14.074,19.414 -15.188,20.82 l 15.426,21.278 z m -18.066,-26.827 18.066,24.92 2.688,-3.707 -15.38,-21.216 0.241,-0.329 c 0.111,-0.152 13.203,-18.212 15.139,-20.883 l -2.688,-3.707 z"
   id="path287" />&#10;			</g>&#10;			<path
   fill="#ffffff"
   d="m 561.474,226.315 c -2.168,-31.928 -13.524,-46.504 -16.505,-49.812 -3.309,-2.981 -17.886,-14.338 -49.812,-16.505 l 0.038,-1.119 h 51.803 l -1.067,0.974 c -0.016,0.015 -0.758,0.703 -1.619,1.907 h 7.942 v -2.881 h 10.339 v 10.339 h -2.881 v 7.942 c 1.204,-0.861 1.893,-1.603 1.907,-1.619 l 0.974,-1.066 v 51.803 z m -14.667,-49.374 c 3.548,4.396 11.394,16.304 14.666,38.722 v -38.446 c -0.447,0.382 -1.04,0.845 -1.761,1.312 v 14.562 l -1.111,0.101 c -1.004,-5.47 -5.687,-12.51 -5.733,-12.581 l -0.514,-0.767 0.918,-0.102 c 2.106,-0.231 3.924,-1.018 5.32,-1.848 v -8.675 h -4.688 l 5.808,-6.803 v 5.683 h 1.761 V 160 h -8.099 v 1.761 h 5.683 l -6.803,5.808 v -4.688 h -8.674 c -0.831,1.396 -1.617,3.213 -1.849,5.321 l -0.101,0.917 -0.768,-0.514 c -0.07,-0.047 -7.115,-4.73 -12.581,-5.734 l 0.102,-1.11 h 14.561 c 0.467,-0.722 0.93,-1.313 1.312,-1.761 h -38.444 c 22.417,3.272 34.324,11.118 38.72,14.666 l 0.334,0.167 c -0.748,-3.526 0.039,-7.832 1.585,-9.346 0.711,-0.696 1.563,-0.837 2.398,-0.396 0.938,0.493 1.512,1.183 1.706,2.049 0.375,1.662 -0.852,3.322 -0.904,3.392 l -0.896,-0.671 c 0.01,-0.014 0.971,-1.323 0.708,-2.479 -0.122,-0.537 -0.493,-0.963 -1.135,-1.3 -0.265,-0.14 -0.632,-0.246 -1.093,0.206 -1.399,1.369 -2.019,5.838 -1.089,9.039 3.201,0.931 7.67,0.311 9.039,-1.089 0.451,-0.46 0.347,-0.825 0.207,-1.093 -0.339,-0.643 -0.766,-1.015 -1.304,-1.135 -1.146,-0.258 -2.462,0.697 -2.476,0.707 l -0.671,-0.896 c 0.069,-0.052 1.733,-1.279 3.392,-0.904 0.866,0.194 1.556,0.769 2.049,1.706 0.44,0.836 0.299,1.688 -0.396,2.398 -1.515,1.545 -5.819,2.331 -9.346,1.586 z m 7.468,3.787 c 0.923,1.465 2.961,4.876 4.316,8.445 v -9.979 c -1.205,0.65 -2.66,1.237 -4.316,1.534 z m 2.058,-12.629 h 2.259 v -2.646 z M 532.3,162.881 c 3.569,1.354 6.98,3.394 8.445,4.316 0.298,-1.656 0.884,-3.11 1.535,-4.316 z m 21.074,0 v 2.259 l 2.646,-2.259 z"
   id="path288" />&#10;			<path
   fill="#ffffff"
   d="m 447.445,422.057 h -51.802 l 1.066,-0.974 c 0.016,-0.015 0.758,-0.703 1.619,-1.907 h -7.942 v 2.881 h -10.339 v -10.338 h 2.881 v -7.942 c -1.204,0.86 -1.893,1.603 -1.907,1.618 l -0.974,1.066 v -51.802 l 1.119,-0.038 c 2.167,31.926 13.523,46.503 16.505,49.812 3.308,2.98 17.884,14.338 49.812,16.505 z m -49.06,-1.12 h 38.445 c -22.418,-3.271 -34.325,-11.118 -38.721,-14.667 l -0.334,-0.166 c 0.748,3.526 -0.039,7.831 -1.585,9.346 -0.711,0.695 -1.563,0.839 -2.398,0.396 -0.938,-0.493 -1.512,-1.182 -1.706,-2.048 -0.375,-1.663 0.852,-3.323 0.904,-3.393 l 0.896,0.67 c -0.01,0.014 -0.971,1.324 -0.708,2.48 0.122,0.537 0.493,0.961 1.135,1.299 0.268,0.141 0.634,0.245 1.093,-0.206 1.399,-1.37 2.019,-5.838 1.09,-9.039 -3.205,-0.932 -7.671,-0.311 -9.04,1.089 -0.451,0.46 -0.347,0.826 -0.207,1.094 0.338,0.641 0.764,1.012 1.3,1.135 1.155,0.263 2.466,-0.698 2.479,-0.708 l 0.671,0.896 c -0.069,0.052 -1.729,1.287 -3.393,0.903 -0.866,-0.194 -1.555,-0.769 -2.048,-1.706 -0.44,-0.835 -0.299,-1.688 0.396,-2.398 1.514,-1.546 5.817,-2.334 9.346,-1.586 l -0.167,-0.333 c -3.548,-4.396 -11.394,-16.302 -14.666,-38.72 v 38.444 c 0.447,-0.382 1.039,-0.845 1.761,-1.312 v -14.561 l 1.11,-0.103 c 1.005,5.47 5.688,12.512 5.734,12.582 l 0.514,0.768 -0.918,0.101 c -2.107,0.231 -3.925,1.019 -5.32,1.849 v 8.675 h 4.688 l -5.808,6.802 v -5.683 h -1.761 v 8.099 h 8.099 v -1.761 h -5.683 l 6.803,-5.807 v 4.687 h 8.674 c 0.831,-1.396 1.617,-3.213 1.849,-5.32 l 0.102,-0.917 0.767,0.513 c 0.07,0.048 7.115,4.73 12.581,5.733 l -0.102,1.111 h -14.561 c -0.467,0.721 -0.929,1.314 -1.311,1.762 z m 1.975,-2.881 h 9.979 c -3.568,-1.354 -6.979,-3.394 -8.444,-4.316 -0.296,1.656 -0.883,3.11 -1.535,4.316 z m -13.739,0 h 2.646 v -2.259 z m -2.572,-5.218 v 2.647 l 2.259,-2.647 z m 0,-21.074 v 9.98 c 1.206,-0.651 2.66,-1.238 4.316,-1.534 -0.923,-1.466 -2.962,-4.877 -4.316,-8.446 z"
   id="path289" />&#10;			<path
   fill="#ffffff"
   d="m 381.167,226.315 -1.119,-0.037 v -51.803 l 0.975,1.066 c 0.015,0.017 0.702,0.758 1.907,1.619 v -7.942 h -2.882 V 158.88 h 10.339 v 2.881 h 7.946 c -0.862,-1.205 -1.605,-1.892 -1.622,-1.906 l -1.072,-0.975 h 51.808 l 0.038,1.119 c -31.926,2.167 -46.503,13.523 -49.813,16.505 -2.98,3.308 -14.337,17.884 -16.505,49.811 z m 0.001,-49.098 v 38.446 c 3.273,-22.418 11.118,-34.325 14.667,-38.722 l 0.166,-0.333 c -3.523,0.747 -7.831,-0.04 -9.345,-1.586 -0.696,-0.711 -0.837,-1.563 -0.397,-2.398 0.493,-0.938 1.184,-1.512 2.05,-1.706 1.661,-0.375 3.322,0.853 3.392,0.904 l -0.671,0.896 c -0.014,-0.01 -1.319,-0.974 -2.479,-0.708 -0.537,0.123 -0.962,0.493 -1.3,1.135 -0.141,0.268 -0.244,0.633 0.206,1.093 1.37,1.398 5.837,2.018 9.04,1.09 0.93,-3.202 0.311,-7.671 -1.089,-9.04 -0.46,-0.452 -0.827,-0.346 -1.094,-0.206 -0.641,0.337 -1.012,0.763 -1.134,1.3 -0.263,1.155 0.698,2.465 0.708,2.479 l -0.897,0.671 c -0.052,-0.069 -1.278,-1.729 -0.904,-3.392 0.195,-0.866 0.77,-1.556 1.706,-2.049 0.836,-0.44 1.688,-0.3 2.398,0.396 1.546,1.514 2.333,5.819 1.586,9.346 l 0.334,-0.167 c 4.396,-3.548 16.302,-11.394 38.72,-14.666 h -38.445 c 0.383,0.447 0.845,1.039 1.313,1.761 h 14.561 l 0.102,1.11 c -5.47,1.005 -12.511,5.688 -12.581,5.734 l -0.768,0.514 -0.101,-0.917 c -0.232,-2.111 -1.017,-3.927 -1.846,-5.321 h -8.678 v 4.688 l -6.803,-5.808 h 5.684 V 160 h -8.1 v 8.099 h 1.762 v -5.683 l 5.808,6.803 h -4.688 v 8.675 c 1.396,0.83 3.213,1.616 5.32,1.848 l 0.918,0.102 -0.514,0.767 c -0.047,0.07 -4.73,7.115 -5.734,12.581 l -1.11,-0.101 v -14.562 c -0.723,-0.467 -1.316,-0.93 -1.763,-1.312 z m 2.882,1.976 v 9.979 c 1.354,-3.569 3.394,-6.98 4.315,-8.445 -1.655,-0.296 -3.109,-0.883 -4.315,-1.534 z m 0,-11.094 h 2.259 l -2.259,-2.646 z m 16.311,-5.218 c 0.651,1.206 1.237,2.66 1.534,4.316 1.465,-0.923 4.877,-2.962 8.446,-4.316 z m -13.74,0 2.646,2.259 v -2.259 z"
   id="path290" />&#10;			<path
   fill="#ffffff"
   d="m 562.594,422.057 h -10.339 v -2.881 h -7.945 c 0.861,1.205 1.605,1.893 1.621,1.906 l 1.072,0.975 h -51.808 l -0.037,-1.119 c 31.927,-2.167 46.504,-13.524 49.812,-16.505 2.981,-3.309 14.337,-17.886 16.505,-49.812 l 1.119,0.038 v 51.802 l -0.975,-1.066 c -0.015,-0.016 -0.702,-0.758 -1.906,-1.618 v 7.942 h 2.881 z m -9.22,-1.12 h 8.1 v -8.099 h -1.761 v 5.683 l -5.808,-6.802 h 4.688 v -8.675 c -1.396,-0.83 -3.214,-1.617 -5.321,-1.849 l -0.917,-0.101 0.513,-0.768 c 0.048,-0.07 4.731,-7.115 5.735,-12.582 l 1.11,0.103 v 14.561 c 0.721,0.467 1.313,0.93 1.761,1.312 v -38.444 c -3.272,22.418 -11.118,34.324 -14.667,38.72 l -0.166,0.333 c 3.526,-0.746 7.831,0.04 9.345,1.586 0.696,0.711 0.838,1.563 0.397,2.398 -0.493,0.938 -1.183,1.512 -2.049,1.706 -1.662,0.383 -3.322,-0.852 -3.392,-0.903 l 0.671,-0.896 c 0.013,0.01 1.322,0.971 2.479,0.708 0.537,-0.123 0.963,-0.494 1.3,-1.135 0.141,-0.268 0.244,-0.634 -0.206,-1.094 -1.369,-1.399 -5.836,-2.02 -9.04,-1.089 -0.929,3.201 -0.31,7.669 1.089,9.039 0.46,0.451 0.826,0.347 1.094,0.206 0.642,-0.338 1.012,-0.762 1.135,-1.299 0.263,-1.156 -0.698,-2.467 -0.709,-2.48 l 0.897,-0.67 c 0.053,0.069 1.279,1.729 0.904,3.393 -0.194,0.866 -0.769,1.555 -1.706,2.048 -0.837,0.442 -1.688,0.299 -2.398,-0.396 -1.546,-1.515 -2.333,-5.819 -1.586,-9.346 l -0.333,0.166 c -4.396,3.549 -16.303,11.396 -38.721,14.667 h 38.445 c -0.383,-0.447 -0.845,-1.04 -1.312,-1.761 h -14.562 l -0.101,-1.111 c 5.469,-1.004 12.51,-5.686 12.58,-5.732 l 0.768,-0.514 0.102,0.917 c 0.231,2.111 1.016,3.927 1.845,5.32 h 8.678 v -4.687 l 6.803,5.807 h -5.684 z m 0,-2.881 h 2.646 l -2.646,-2.259 z m -21.073,0 h 9.979 c -0.651,-1.206 -1.237,-2.66 -1.534,-4.316 -1.465,0.922 -4.876,2.961 -8.445,4.316 z m 24.033,-5.218 2.259,2.647 v -2.647 z m -2.058,-12.628 c 1.655,0.296 3.11,0.883 4.316,1.534 v -9.98 c -1.354,3.569 -3.394,6.98 -4.316,8.446 z"
   id="path291" />&#10;			<path
   fill="#ffffff"
   d="m 561.474,226.315 c -2.168,-31.928 -13.524,-46.504 -16.505,-49.812 -3.309,-2.981 -17.886,-14.338 -49.812,-16.505 l 0.038,-1.119 h 51.803 l -1.067,0.974 c -0.016,0.015 -0.758,0.703 -1.619,1.907 h 7.942 v -2.881 h 10.339 v 10.339 h -2.881 v 7.942 c 1.204,-0.861 1.893,-1.603 1.907,-1.619 l 0.974,-1.066 v 51.803 z m -14.667,-49.374 c 3.548,4.396 11.394,16.304 14.666,38.722 v -38.446 c -0.447,0.382 -1.04,0.845 -1.761,1.312 v 14.562 l -1.111,0.101 c -1.004,-5.47 -5.687,-12.51 -5.733,-12.581 l -0.514,-0.767 0.918,-0.102 c 2.106,-0.231 3.924,-1.018 5.32,-1.848 v -8.675 h -4.688 l 5.808,-6.803 v 5.683 h 1.761 V 160 h -8.099 v 1.761 h 5.683 l -6.803,5.808 v -4.688 h -8.674 c -0.831,1.396 -1.617,3.213 -1.849,5.321 l -0.101,0.917 -0.768,-0.514 c -0.07,-0.047 -7.115,-4.73 -12.581,-5.734 l 0.102,-1.11 h 14.561 c 0.467,-0.722 0.93,-1.313 1.312,-1.761 h -38.444 c 22.417,3.272 34.324,11.118 38.72,14.666 l 0.334,0.167 c -0.748,-3.526 0.039,-7.832 1.585,-9.346 0.711,-0.696 1.563,-0.837 2.398,-0.396 0.938,0.493 1.512,1.183 1.706,2.049 0.375,1.662 -0.852,3.322 -0.904,3.392 l -0.896,-0.671 c 0.01,-0.014 0.971,-1.323 0.708,-2.479 -0.122,-0.537 -0.493,-0.963 -1.135,-1.3 -0.265,-0.14 -0.632,-0.246 -1.093,0.206 -1.399,1.369 -2.019,5.838 -1.089,9.039 3.201,0.931 7.67,0.311 9.039,-1.089 0.451,-0.46 0.347,-0.825 0.207,-1.093 -0.339,-0.643 -0.766,-1.015 -1.304,-1.135 -1.146,-0.258 -2.462,0.697 -2.476,0.707 l -0.671,-0.896 c 0.069,-0.052 1.733,-1.279 3.392,-0.904 0.866,0.194 1.556,0.769 2.049,1.706 0.44,0.836 0.299,1.688 -0.396,2.398 -1.515,1.545 -5.819,2.331 -9.346,1.586 z m 7.468,3.787 c 0.923,1.465 2.961,4.876 4.316,8.445 v -9.979 c -1.205,0.65 -2.66,1.237 -4.316,1.534 z m 2.058,-12.629 h 2.259 v -2.646 z M 532.3,162.881 c 3.569,1.354 6.98,3.394 8.445,4.316 0.298,-1.656 0.884,-3.11 1.535,-4.316 z m 21.074,0 v 2.259 l 2.646,-2.259 z"
   id="path292" />&#10;			<path
   fill="#ffffff"
   d="m 447.445,422.057 h -51.802 l 1.066,-0.974 c 0.016,-0.015 0.758,-0.703 1.619,-1.907 h -7.942 v 2.881 h -10.339 v -10.338 h 2.881 v -7.942 c -1.204,0.86 -1.893,1.603 -1.907,1.618 l -0.974,1.066 v -51.802 l 1.119,-0.038 c 2.167,31.926 13.523,46.503 16.505,49.812 3.308,2.98 17.884,14.338 49.812,16.505 z m -49.06,-1.12 h 38.445 c -22.418,-3.271 -34.325,-11.118 -38.721,-14.667 l -0.334,-0.166 c 0.748,3.526 -0.039,7.831 -1.585,9.346 -0.711,0.695 -1.563,0.839 -2.398,0.396 -0.938,-0.493 -1.512,-1.182 -1.706,-2.048 -0.375,-1.663 0.852,-3.323 0.904,-3.393 l 0.896,0.67 c -0.01,0.014 -0.971,1.324 -0.708,2.48 0.122,0.537 0.493,0.961 1.135,1.299 0.268,0.141 0.634,0.245 1.093,-0.206 1.399,-1.37 2.019,-5.838 1.09,-9.039 -3.205,-0.932 -7.671,-0.311 -9.04,1.089 -0.451,0.46 -0.347,0.826 -0.207,1.094 0.338,0.641 0.764,1.012 1.3,1.135 1.155,0.263 2.466,-0.698 2.479,-0.708 l 0.671,0.896 c -0.069,0.052 -1.729,1.287 -3.393,0.903 -0.866,-0.194 -1.555,-0.769 -2.048,-1.706 -0.44,-0.835 -0.299,-1.688 0.396,-2.398 1.514,-1.546 5.817,-2.334 9.346,-1.586 l -0.167,-0.333 c -3.548,-4.396 -11.394,-16.302 -14.666,-38.72 v 38.444 c 0.447,-0.382 1.039,-0.845 1.761,-1.312 v -14.561 l 1.11,-0.103 c 1.005,5.47 5.688,12.512 5.734,12.582 l 0.514,0.768 -0.918,0.101 c -2.107,0.231 -3.925,1.019 -5.32,1.849 v 8.675 h 4.688 l -5.808,6.802 v -5.683 h -1.761 v 8.099 h 8.099 v -1.761 h -5.683 l 6.803,-5.807 v 4.687 h 8.674 c 0.831,-1.396 1.617,-3.213 1.849,-5.32 l 0.102,-0.917 0.767,0.513 c 0.07,0.048 7.115,4.73 12.581,5.733 l -0.102,1.111 h -14.561 c -0.467,0.721 -0.929,1.314 -1.311,1.762 z m 1.975,-2.881 h 9.979 c -3.568,-1.354 -6.979,-3.394 -8.444,-4.316 -0.296,1.656 -0.883,3.11 -1.535,4.316 z m -13.739,0 h 2.646 v -2.259 z m -2.572,-5.218 v 2.647 l 2.259,-2.647 z m 0,-21.074 v 9.98 c 1.206,-0.651 2.66,-1.238 4.316,-1.534 -0.923,-1.466 -2.962,-4.877 -4.316,-8.446 z"
   id="path293" />&#10;			<path
   fill="#ffffff"
   d="m 381.167,226.315 -1.119,-0.037 v -51.803 l 0.975,1.066 c 0.015,0.017 0.702,0.758 1.907,1.619 v -7.942 h -2.882 V 158.88 h 10.339 v 2.881 h 7.946 c -0.862,-1.205 -1.605,-1.892 -1.622,-1.906 l -1.072,-0.975 h 51.808 l 0.038,1.119 c -31.926,2.167 -46.503,13.523 -49.813,16.505 -2.98,3.308 -14.337,17.884 -16.505,49.811 z m 0.001,-49.098 v 38.446 c 3.273,-22.418 11.118,-34.325 14.667,-38.722 l 0.166,-0.333 c -3.523,0.747 -7.831,-0.04 -9.345,-1.586 -0.696,-0.711 -0.837,-1.563 -0.397,-2.398 0.493,-0.938 1.184,-1.512 2.05,-1.706 1.661,-0.375 3.322,0.853 3.392,0.904 l -0.671,0.896 c -0.014,-0.01 -1.319,-0.974 -2.479,-0.708 -0.537,0.123 -0.962,0.493 -1.3,1.135 -0.141,0.268 -0.244,0.633 0.206,1.093 1.37,1.398 5.837,2.018 9.04,1.09 0.93,-3.202 0.311,-7.671 -1.089,-9.04 -0.46,-0.452 -0.827,-0.346 -1.094,-0.206 -0.641,0.337 -1.012,0.763 -1.134,1.3 -0.263,1.155 0.698,2.465 0.708,2.479 l -0.897,0.671 c -0.052,-0.069 -1.278,-1.729 -0.904,-3.392 0.195,-0.866 0.77,-1.556 1.706,-2.049 0.836,-0.44 1.688,-0.3 2.398,0.396 1.546,1.514 2.333,5.819 1.586,9.346 l 0.334,-0.167 c 4.396,-3.548 16.302,-11.394 38.72,-14.666 h -38.445 c 0.383,0.447 0.845,1.039 1.313,1.761 h 14.561 l 0.102,1.11 c -5.47,1.005 -12.511,5.688 -12.581,5.734 l -0.768,0.514 -0.101,-0.917 c -0.232,-2.111 -1.017,-3.927 -1.846,-5.321 h -8.678 v 4.688 l -6.803,-5.808 h 5.684 V 160 h -8.1 v 8.099 h 1.762 v -5.683 l 5.808,6.803 h -4.688 v 8.675 c 1.396,0.83 3.213,1.616 5.32,1.848 l 0.918,0.102 -0.514,0.767 c -0.047,0.07 -4.73,7.115 -5.734,12.581 l -1.11,-0.101 v -14.562 c -0.723,-0.467 -1.316,-0.93 -1.763,-1.312 z m 2.882,1.976 v 9.979 c 1.354,-3.569 3.394,-6.98 4.315,-8.445 -1.655,-0.296 -3.109,-0.883 -4.315,-1.534 z m 0,-11.094 h 2.259 l -2.259,-2.646 z m 16.311,-5.218 c 0.651,1.206 1.237,2.66 1.534,4.316 1.465,-0.923 4.877,-2.962 8.446,-4.316 z m -13.74,0 2.646,2.259 v -2.259 z"
   id="path294" />&#10;			<path
   fill="#ffffff"
   d="m 562.594,422.057 h -10.339 v -2.881 h -7.945 c 0.861,1.205 1.605,1.893 1.621,1.906 l 1.072,0.975 h -51.808 l -0.037,-1.119 c 31.927,-2.167 46.504,-13.524 49.812,-16.505 2.981,-3.309 14.337,-17.886 16.505,-49.812 l 1.119,0.038 v 51.802 l -0.975,-1.066 c -0.015,-0.016 -0.702,-0.758 -1.906,-1.618 v 7.942 h 2.881 z m -9.22,-1.12 h 8.1 v -8.099 h -1.761 v 5.683 l -5.808,-6.802 h 4.688 v -8.675 c -1.396,-0.83 -3.214,-1.617 -5.321,-1.849 l -0.917,-0.101 0.513,-0.768 c 0.048,-0.07 4.731,-7.115 5.735,-12.582 l 1.11,0.103 v 14.561 c 0.721,0.467 1.313,0.93 1.761,1.312 v -38.444 c -3.272,22.418 -11.118,34.324 -14.667,38.72 l -0.166,0.333 c 3.526,-0.746 7.831,0.04 9.345,1.586 0.696,0.711 0.838,1.563 0.397,2.398 -0.493,0.938 -1.183,1.512 -2.049,1.706 -1.662,0.383 -3.322,-0.852 -3.392,-0.903 l 0.671,-0.896 c 0.013,0.01 1.322,0.971 2.479,0.708 0.537,-0.123 0.963,-0.494 1.3,-1.135 0.141,-0.268 0.244,-0.634 -0.206,-1.094 -1.369,-1.399 -5.836,-2.02 -9.04,-1.089 -0.929,3.201 -0.31,7.669 1.089,9.039 0.46,0.451 0.826,0.347 1.094,0.206 0.642,-0.338 1.012,-0.762 1.135,-1.299 0.263,-1.156 -0.698,-2.467 -0.709,-2.48 l 0.897,-0.67 c 0.053,0.069 1.279,1.729 0.904,3.393 -0.194,0.866 -0.769,1.555 -1.706,2.048 -0.837,0.442 -1.688,0.299 -2.398,-0.396 -1.546,-1.515 -2.333,-5.819 -1.586,-9.346 l -0.333,0.166 c -4.396,3.549 -16.303,11.396 -38.721,14.667 h 38.445 c -0.383,-0.447 -0.845,-1.04 -1.312,-1.761 h -14.562 l -0.101,-1.111 c 5.469,-1.004 12.51,-5.686 12.58,-5.732 l 0.768,-0.514 0.102,0.917 c 0.231,2.111 1.016,3.927 1.845,5.32 h 8.678 v -4.687 l 6.803,5.807 h -5.684 z m 0,-2.881 h 2.646 l -2.646,-2.259 z m -21.073,0 h 9.979 c -0.651,-1.206 -1.237,-2.66 -1.534,-4.316 -1.465,0.922 -4.876,2.961 -8.445,4.316 z m 24.033,-5.218 2.259,2.647 v -2.647 z m -2.058,-12.628 c 1.655,0.296 3.11,0.883 4.316,1.534 v -9.98 c -1.354,3.569 -3.394,6.98 -4.316,8.446 z"
   id="path295" />&#10;			<path
   fill="#ffffff"
   d="m 471.319,319.544 -26.11,-32.548 26.11,-32.548 26.111,32.548 z m -24.674,-32.548 24.675,30.759 24.675,-30.759 -24.675,-30.759 z"
   id="path296" />&#10;			<rect
   x="380.048"
   y="226.278"
   fill="#ffffff"
   width="1.12"
   height="128.381"
   id="rect296" />&#10;			<rect
   x="561.47302"
   y="226.278"
   fill="#ffffff"
   width="1.12"
   height="128.381"
   id="rect297" />&#10;		</g>&#10;	</g>&#10;</g>&#10;</svg>