<?xml version="1.0" encoding="UTF-8" standalone="no"?>
<svg
   id="Layer_1"
   data-name="Layer 1"
   viewBox="0 0 262 480"
   version="1.1"
   sodipodi:docname="red2.svg"
   inkscape:export-filename="red2.svg"
   inkscape:version="1.3 (0e150ed6c4, 2023-07-21)"
   inkscape:export-xdpi="96"
   inkscape:export-ydpi="96"
   xmlns:inkscape="http://www.inkscape.org/namespaces/inkscape"
   xmlns:sodipodi="http://sodipodi.sourceforge.net/DTD/sodipodi-0.dtd"
   xmlns="http://www.w3.org/2000/svg"
   xmlns:svg="http://www.w3.org/2000/svg"
   xmlns:rdf="http://www.w3.org/1999/02/22-rdf-syntax-ns#"
   xmlns:cc="http://creativecommons.org/ns#"
   xmlns:dc="http://purl.org/dc/elements/1.1/">
  <sodipodi:namedview
     id="namedview4206"
     pagecolor="#ffffff"
     bordercolor="#000000"
     borderopacity="0.25"
     inkscape:showpageshadow="2"
     inkscape:pageopacity="0.0"
     inkscape:pagecheckerboard="0"
     inkscape:deskcolor="#d1d1d1"
     inkscape:zoom="1.3211352"
     inkscape:cx="-444.69331"
     inkscape:cy="37.846239"
     inkscape:window-width="3840"
     inkscape:window-height="2066"
     inkscape:window-x="-11"
     inkscape:window-y="-11"
     inkscape:window-maximized="1"
     inkscape:current-layer="g4207" />
  <defs
     id="defs1">
    <style
       id="style1">.cls-1{fill:#39b000;}.cls-2{fill:#030712;}.cls-3{fill:#ffffff;}.cls-4{fill:#ffffff;}.cls-5{fill:#4f4f4f;}.cls-6{fill:#424242;}</style>
  </defs>
  <title
     id="title1">Free Playing Card Back Vector</title>
  <g
     id="g4207"
     style="display:inline">
    <rect
       style="display:inline;fill:none;stroke:#ffffff;strokeWidth:4;stroke-dasharray:none;stroke-opacity:1"
       id="rect1"
       width="239.18823"
       height="367.86548"
       x="12.110796"
       y="11.732333"
       rx="17.534121"
       ry="19.51827" />
    <path
       class="cls-3"
       d="m 123.2409,220.24023 a 1.23,1.23 0 0 0 -0.48,-0.1 v 0 a 1.25,1.25 0 0 0 0,2.5 v 0 a 1.23,1.23 0 0 0 0.48,-0.1 1.25,1.25 0 0 0 0,-2.3 z"
       id="path2655" />
    <ellipse
       class="cls-3"
       cx="108.92089"
       cy="198.6402"
       rx="1.63"
       ry="1.62"
       id="ellipse2663" />
    <path
       class="cls-3"
       d="m 122.7609,207.15023 a 1.25,1.25 0 1 0 1.25,1.25 1.26,1.26 0 0 0 -1.25,-1.25 z"
       id="path2682" />
    <path
       class="cls-3"
       d="m 122.7609,187.64023 a 1.25,1.25 0 1 0 1.25,1.25 1.26,1.26 0 0 0 -1.25,-1.25 z"
       id="path2685" />
    <path
       class="cls-3"
       d="m 122.7609,200.64023 a 1.25,1.25 0 1 0 1.25,1.25 1.26,1.26 0 0 0 -1.25,-1.25 z"
       id="path2686" />
    <path
       class="cls-3"
       d="m 122.7609,181.15023 a 1.25,1.25 0 1 0 1.25,1.25 1.26,1.26 0 0 0 -1.25,-1.25 z"
       id="path2687" />
    <path
       class="cls-3"
       d="m 122.7609,194.15023 a 1.25,1.25 0 1 0 1.25,1.25 1.26,1.26 0 0 0 -1.25,-1.25 z"
       id="path2688" />
    <path
       class="cls-3"
       d="m 122.7609,213.64023 a 1.25,1.25 0 1 0 1.25,1.25 1.26,1.26 0 0 0 -1.25,-1.25 z"
       id="path2689" />
    <path
       class="cls-3"
       d="m 127.3709,217.02023 a 1.13,1.13 0 1 0 1.12,1.12 1.12,1.12 0 0 0 -1.12,-1.12 z"
       id="path2695" />
    <path
       class="cls-3"
       d="m 131.9809,213.89023 a 1,1 0 1 0 1,1 1,1 0 0 0 -1,-1 z"
       id="path2696" />
    <path
       class="cls-3"
       d="m 131.9809,187.89023 a 1,1 0 1 0 1,1 1,1 0 0 0 -1,-1 z"
       id="path2699" />
    <path
       class="cls-3"
       d="m 131.9809,194.39023 a 1,1 0 1 0 1,1 1,1 0 0 0 -1,-1 z"
       id="path2701" />
    <path
       class="cls-3"
       d="m 131.9809,181.39023 a 1,1 0 1 0 1,1 1,1 0 0 0 -1,-1 z"
       id="path2702" />
    <path
       class="cls-3"
       d="m 131.9809,207.39023 a 1,1 0 1 0 1,1 1,1 0 0 0 -1,-1 z"
       id="path2703" />
    <path
       class="cls-3"
       d="m 131.9809,200.89023 a 1,1 0 1 0 1,1 1,1 0 0 0 -1,-1 z"
       id="path2704" />
    <path
       class="cls-3"
       d="m 131.9809,220.39023 a 1,1 0 1 0 1,1 1,1 0 0 0 -1,-1 z"
       id="path2705" />
    <ellipse
       class="cls-3"
       cx="136.59088"
       cy="179.14021"
       rx="0.88"
       ry="0.87"
       id="ellipse2707" />
    <ellipse
       class="cls-3"
       cx="136.59088"
       cy="192.14023"
       rx="0.88"
       ry="0.87"
       id="ellipse2708" />
    <ellipse
       class="cls-3"
       cx="136.59088"
       cy="205.1402"
       rx="0.88"
       ry="0.87"
       id="ellipse2709" />
    <ellipse
       class="cls-3"
       cx="136.59088"
       cy="185.64021"
       rx="0.88"
       ry="0.87"
       id="ellipse2710" />
    <ellipse
       class="cls-3"
       cx="136.59088"
       cy="198.6402"
       rx="0.88"
       ry="0.87"
       id="ellipse2711" />
    <ellipse
       class="cls-3"
       cx="136.59088"
       cy="211.6402"
       rx="0.88"
       ry="0.87"
       id="ellipse2712" />
    <path
       class="cls-3"
       d="m 136.5909,217.27023 a 0.88,0.88 0 1 0 0.87,0.87 0.87,0.87 0 0 0 -0.87,-0.87 z"
       id="path2712" />
    <path
       class="cls-3"
       d="m 122.7509,226.64023 a 1.25,1.25 0 1 0 1.26,1.25 1.24,1.24 0 0 0 -1.26,-1.25 z"
       id="path2830" />
    <path
       class="cls-3"
       d="m 127.3709,223.51023 a 1.13,1.13 0 1 0 1.12,1.13 1.13,1.13 0 0 0 -1.12,-1.13 z"
       id="path2842" />
    <path
       class="cls-3"
       d="m 131.9809,226.89023 a 1,1 0 1 0 1,1 1,1 0 0 0 -1,-1 z"
       id="path2849" />
    <path
       class="cls-3"
       d="m 136.5909,223.76023 a 0.88,0.88 0 0 0 -0.88,0.88 0.88,0.88 0 1 0 0.88,-0.88 z"
       id="path2861" />
    <ellipse
       class="cls-3"
       cx="99.70092"
       cy="198.6402"
       rx="1.63"
       ry="1.62"
       id="ellipse3591" />
    <polygon
       class="cls-2"
       points="860.91,354.51 879.74,293.78 911.55,310.54 894.79,278.73 955.52,259.9 894.79,241.07 911.55,209.26 879.74,226.02 860.91,165.29 842.09,226.02 810.27,209.26 827.03,241.07 766.3,259.9 827.03,278.73 810.27,310.54 842.09,293.78 "
       id="polygon4172"
       transform="translate(-729.6291,-63.84978)" />
    <polygon
       class="cls-2"
       points="860.91,235.18 808.68,207.67 836.19,259.9 808.68,312.13 860.91,284.62 913.14,312.13 885.63,259.9 913.14,207.67 "
       id="polygon4173"
       transform="translate(-729.6291,-63.84978)" />
    <path
       class="cls-3"
       d="m 191.9209,256.69023 -60.64,-31.94 -60.639993,31.94 31.939993,-60.64 -31.939993,-60.64 60.639993,31.94 60.64,-31.94 -31.94,60.64 z m -60.64,-39.9 43.81,23.08 -23.07,-43.82 23.08,-43.81 -43.81,23.08 -43.820003,-23.08 23.080003,43.81 -23.080003,43.81 z"
       id="path4173" />
    <polygon
       class="cls-3"
       points="860.91,259.9 885.63,259.9 913.14,207.67 "
       id="polygon4174"
       transform="translate(-729.6291,-63.84978)" />
    <polygon
       class="cls-3"
       points="860.91,259.9 836.19,259.9 808.68,312.13 "
       id="polygon4175"
       transform="translate(-729.6291,-63.84978)" />
    <polygon
       class="cls-3"
       points="860.91,259.9 860.91,284.62 913.14,312.13 "
       id="polygon4176"
       transform="translate(-729.6291,-63.84978)" />
    <polygon
       class="cls-3"
       points="860.91,259.9 860.91,235.18 808.68,207.67 "
       id="polygon4177"
       transform="translate(-729.6291,-63.84978)" />
    <polygon
       class="cls-2"
       points="843.81,242.8 788.66,259.9 843.81,277 860.91,332.15 878.01,277 933.16,259.9 878.01,242.8 860.91,187.65 "
       id="polygon4178"
       transform="translate(-729.6291,-63.84978)" />
    <path
       class="cls-3"
       d="m 131.2809,276.24023 -19,-61.21 -61.209993,-19 61.209993,-19 19,-61.21 19,61.21 61.21,19 -61.21,19 z m -64.319993,-80.19 49.099993,15.22 15.22,49.1 15.22,-49.1 49.1,-15.22 -49.1,-15.22 -15.22,-49.1 -15.22,49.1 z"
       id="path4178" />
    <polygon
       class="cls-3"
       points="860.91,259.9 878.01,242.8 860.91,187.65 "
       id="polygon4179"
       transform="translate(-729.6291,-63.84978)" />
    <polygon
       class="cls-3"
       points="860.91,259.9 843.81,277 860.91,332.15 "
       id="polygon4180"
       transform="translate(-729.6291,-63.84978)" />
    <polygon
       class="cls-3"
       points="860.91,259.9 878.01,277 933.16,259.9 "
       id="polygon4181"
       transform="translate(-729.6291,-63.84978)" />
    <polygon
       class="cls-3"
       points="860.91,259.9 843.81,242.8 788.66,259.9 "
       id="polygon4182"
       transform="translate(-729.6291,-63.84978)" />
  </g>
  <g
     id="g4206"
     style="display:none"
     transform="translate(-364.19665,-27.605988)">
    <rect
       class="cls-3"
       x="364.21539"
       y="27.630686"
       width="259.35001"
       height="389.04001"
       id="rect4184" />
    <path
       class="cls-2"
       d="m 583.24536,234.33069 7.07,-12.24 -6.89,-11.94 3.48,-13 -9.75,-9.75 v -13.49 l -11.94,-6.89 -3.48,-13 -12.66,-3.39 -7,-12.07 h -13.76 l -9.62,-9.62 -13.29,3.56 -11.78,-6.8 -11.92,6.88 -13.14,-3.52 -9.49,9.49 h -13.43 l -6.8,11.78 -13.27,3.58 -3.52,13.14 -11.92,6.86 v 13.6 l -9.73,9.73 3.61,13.46 -6.55,11.35 6.73,11.66 -3.57,13.32 9.52,9.52 v 13.79 l 11.66,6.73 3.57,13.32 13.66,3.66 6.65,11.52 h 13.48 l 9.65,9.65 13,-3.49 11.82,6.82 11.68,-6.74 13.18,3.53 9.77,-9.77 h 13.82 l 6.82,-11.82 13,-3.49 3.53,-13.18 11.68,-6.74 v -13.62 l 9.53,-9.53 z m 4.21,-12.24 -5.12,8.86 -2.25,-8.38 2.42,-9 z m -10.3,-0.92 0.37,1.4 -0.37,1.4 z m -2.48,12 -5.51,20.55 -10.21,17.65 -15.65,15.65 -18.35,10.61 -20.49,5.49 h -22.11 l -19.65,-5.27 -18.42,-10.64 -15,-15 -11.56,-20 -5.06,-18.88 v -21.42 l 5.54,-20.67 11.11,-19.33 14.52,-14.52 18.59,-10.73 20.73,-5.55 h 20.54 l 21.56,5.78 18.53,10.7 15.17,15.08 9.77,16.93 6,22.34 z m 2.48,-21.6 v -7.36 l 3.61,6.25 -2,7.29 z m -2.48,-9.24 -1.2,-4.48 1.2,2.08 z m -3.72,-13.69 -1.42,-5.32 5.1,5.1 v 6.58 z m -4.78,-8.28 -0.53,-0.92 0.39,0.39 z m -5.32,-9.21 -3.23,-5.6 5.42,3.13 1.7,6.36 z m -6.77,-6.77 -2.06,-2.06 1.31,0.75 z m -8.83,-8.83 -4.57,-4.57 6.7,1.79 3.47,6 z m -8.28,-4.78 -2.53,-1.46 1.46,0.39 z m -10.81,-6.24 -6,-3.47 h 7.11 l 5.14,5.14 z m -9.24,-2.48 -3.71,-1 h 2 z m -13,-3.47 -5.81,-1.56 6.87,-1.84 5.88,3.4 z m -9.57,0 h -2.05 l 1,-0.28 z m -11.62,0 h -6.5 l 5.74,-3.32 6.56,1.76 z m -9.24,2.48 -2.88,0.77 1.34,-0.77 z m -12.12,3.25 -6.27,1.68 4.93,-4.93 h 7 z m -8.28,4.78 -2.58,1.49 1.09,-1.09 z m -10.86,6.27 -5.21,3 3.4,-5.88 6.41,-1.72 z m -6.77,6.77 -1.45,1.45 0.53,-0.92 z m -8.22,8.22 -4.91,4.91 1.76,-6.56 6.16,-3.56 z m -4.78,8.28 -1.92,3.33 0.51,-1.92 z m -6.7,11.61 -3.23,5.6 v -7.27 l 5,-5 z m -2.48,9.24 -0.76,2.82 v -1.51 z m -3.23,12.06 -1.67,6.24 -1.79,-6.7 3.47,-6 z m 0,9.57 v 2.92 l -0.39,-1.46 z m 0,12.48 v 5.5 l -3.29,-5.7 1.62,-6 z m 2.48,9.24 0.28,1 -0.28,-0.48 z m 2.75,10.27 1.9,7.1 -4.66,-4.66 v -7.22 z m 4.78,8.28 2.32,4 -1.7,-1.7 z m 7.1,12.3 3.2,5.54 -6.53,-3.77 -1.87,-7 z m 6.77,6.77 2,2 -1.25,-0.72 z m 8.74,8.74 4.52,4.52 -6.54,-1.8 -3.43,-5.95 z m 8.28,4.78 2.42,1.4 -1.4,-0.37 z m 10.7,6.18 5.13,3 h -6.69 l -4.61,-4.61 z m 9.24,2.48 1.8,0.48 h -1 z m 11,3 6.61,1.77 -6.46,1.73 -6.07,-3.5 z m 9.57,0 h 3.65 l -1.83,0.49 z m 13.22,0 h 6.36 l -6.21,3.58 -6.77,-1.81 z m 9.24,-2.48 2.63,-0.71 -1.22,0.71 z m 12.03,-3.24 6.15,-1.65 -4.83,4.83 h -6.83 z m 8.28,-4.78 2.36,-1.36 -1,1 z m 10.65,-6.15 5.93,-3.42 -3.5,6.07 -6.92,1.86 z m 6.77,-6.77 2.58,-2.58 -0.95,1.64 z m 9.3,-9.3 4.18,-4.18 -1.81,6.77 -5.79,3.34 z m 4.78,-8.28 0.93,-1.62 -0.25,0.93 z m 5.72,-9.9 3.2,-5.54 v 6.53 l -4.73,4.73 z m 2.48,-9.24 0.72,-2.7 v 1.45 z m 3.2,-11.94 1.66,-6.18 1.78,6.63 -3.42,5.91 z m 7,-35.64 -2.47,9.23 -4.51,-7.82 v -8.41 z m -9.46,-22.52 v 9.52 l -6.38,-6.38 -2.17,-8.11 z m -15,-19.3 2.47,9.23 -7,-4 -4.37,-7.58 z m -19,-15 5,8.69 -8.45,-2.26 -6.43,-6.43 z m -22.72,-9.36 6.85,6.85 h -8.85 l -7.45,-4.3 z m -24.33,-3.14 8.4,4.85 -8.62,2.31 -8.31,-2.23 z m -24.32,3.26 9.36,2.51 -7.31,4.22 h -8.78 z m -22.23,9.21 h 9.52 l -6.21,6.21 -8.16,2.19 z m -19.48,14.85 9.52,-2.55 -4.3,7.45 -7.73,4.46 z m -15,19.43 8.54,-4.93 -2.23,8.31 -6.31,6.31 z m -9.45,22.64 7,-7 v 9.09 l -4.37,7.58 z m -2.85,24.08 4.6,-8 2.26,8.45 -2.09,7.8 z m 3.06,24.23 2.56,-9.54 4.2,7.27 v 9 z m 9.23,22.61 v -9.88 l 5.94,5.94 2.34,8.72 z m 14.77,19.45 -2.56,-9.54 8.1,4.68 4.34,7.52 z m 19.72,14.73 -4.7,-8.14 8.38,2.25 5.9,5.9 z m 22.44,9.36 -6.89,-6.89 h 8.5 l 7.64,4.41 z m 24.1,3.24 -8.44,-4.87 8.21,-2.2 8.57,2.3 z m 24.12,-3.11 -9.41,-2.52 7.78,-4.49 h 8.64 z m 22.9,-9.49 h -9.92 l 6.11,-6.11 8.67,-2.32 z m 19.32,-14.81 -9.25,2.48 4.41,-7.64 7.36,-4.25 z m 14.72,-19.36 -8.29,4.79 2.28,-8.52 6,-6 z m 2.48,-24 4.34,-7.51 2.43,9.08 -6.77,6.77 z"
       id="path4184" />
  </g>
  <metadata
     id="metadata4207">
    <rdf:RDF>
      <cc:Work
         rdf:about="">
        <dc:title>Free Playing Card Back Vector</dc:title>
      </cc:Work>
    </rdf:RDF>
  </metadata>
</svg>
