<?xml version="1.0" standalone="no"?>
<!DOCTYPE svg PUBLIC "-//W3C//DTD SVG 20010904//EN" "http://www.w3.org/TR/2001/REC-SVG-20010904/DTD/svg10.dtd">
<!-- Created using Krita: https://krita.org -->
<svg xmlns="http://www.w3.org/2000/svg" 
    xmlns:xlink="http://www.w3.org/1999/xlink"
    xmlns:krita="http://krita.org/namespaces/svg/krita"
    xmlns:sodipodi="http://sodipodi.sourceforge.net/DTD/sodipodi-0.dtd"
    width="576pt"
    height="576pt"
    viewBox="0 0 576 576">
<defs/>
<path id="shape0" transform="matrix(0.745330703788316 -0.202412147085372 0.202412147085372 0.745330703788316 54.7905556356094 185.697421130485)" fill="#1a1a1a" fill-rule="evenodd" stroke-opacity="0" stroke="#000000" stroke-width="0" stroke-linecap="square" stroke-linejoin="bevel" d="M214.622 224.927C102.977 152.083 36.0114 93.5976 13.7254 49.4695C10.2696 42.6267 5.69445 26.1368 0 0C27.5196 3.65229 44.69 7.14901 51.5115 10.4902C95.8088 32.1871 154.302 99.6591 226.991 212.906C224.021 213.844 217.326 219.707 214.622 224.927Z" sodipodi:nodetypes="cscscc"/><path id="shape01" transform="matrix(0.700970798434211 0.324235268641357 -0.324235268641357 0.700970798434211 194.720882704728 66.3858999551955)" fill="#1a1a1a" fill-rule="evenodd" stroke-opacity="0" stroke="#000000" stroke-width="0" stroke-linecap="square" stroke-linejoin="bevel" d="M214.622 224.927C102.977 152.083 36.0114 93.5976 13.7254 49.4695C10.2696 42.6267 5.69445 26.1368 0 0C27.5196 3.65229 44.69 7.14901 51.5115 10.4902C95.8088 32.1871 154.302 99.6591 226.991 212.906C224.021 213.844 217.326 219.707 214.622 224.927Z" sodipodi:nodetypes="cscscc"/><path id="shape02" transform="matrix(0.31700395629927 0.704270541087014 -0.704270541087014 0.31700395629927 378.725951742385 65.8379889517508)" fill="#1a1a1a" fill-rule="evenodd" stroke-opacity="0" stroke="#000000" stroke-width="0" stroke-linecap="square" stroke-linejoin="bevel" d="M214.622 224.927C102.977 152.083 36.0114 93.5976 13.7254 49.4695C10.2696 42.6267 5.69445 26.1368 0 0C27.5196 3.65229 44.69 7.14901 51.5115 10.4902C95.8088 32.1871 154.302 99.6591 226.991 212.906C224.021 213.844 217.326 219.707 214.622 224.927Z" sodipodi:nodetypes="cscscc"/><path id="shape03" transform="matrix(-0.175280348383452 0.752173710353432 -0.752173710353432 -0.175280348383452 514.369494166858 175.15029287244)" fill="#1a1a1a" fill-rule="evenodd" stroke-opacity="0" stroke="#000000" stroke-width="0" stroke-linecap="square" stroke-linejoin="bevel" d="M214.622 224.927C102.977 152.083 36.0114 93.5976 13.7254 49.4695C10.2696 42.6267 5.69445 26.1368 0 0C27.5196 3.65229 44.69 7.14901 51.5115 10.4902C95.8088 32.1871 154.302 99.6591 226.991 212.906C224.021 213.844 217.326 219.707 214.622 224.927Z" sodipodi:nodetypes="cscscc"/><circle id="shape0" transform="matrix(0.591168656762257 -0.49699925319562 0.49699925319562 0.591168656762257 245.784110856647 312.41369277198)" r="37.7088730015713" cx="37.7088730015713" cy="37.7088730015713" fill="#1a1a1a" fill-rule="evenodd" stroke="#000000" stroke-width="15.75" stroke-linecap="square" stroke-linejoin="bevel"/><path id="shape01" transform="matrix(0.771051459689061 0.0443646307982784 -0.0443646307982784 0.771051459689061 109.481186025665 117.630199775636)" fill="#000000" fill-rule="evenodd" stroke-opacity="0" stroke="#000000" stroke-width="0" stroke-linecap="square" stroke-linejoin="bevel" d="M214.622 224.927C102.977 152.083 36.0114 93.5976 13.7254 49.4695C10.2696 42.6267 5.69445 26.1368 0 0C27.5196 3.65229 44.69 7.14901 51.5115 10.4902C95.8088 32.1871 154.302 99.6591 226.991 212.906C224.021 213.844 217.326 219.707 214.622 224.927Z" sodipodi:nodetypes="cscscc"/><path id="shape02" transform="matrix(0.548996945178472 0.543222755902528 -0.543222755902528 0.548996945178472 286.074464038901 49.8855128526748)" fill="#000000" fill-rule="evenodd" stroke-opacity="0" stroke="#000000" stroke-width="0" stroke-linecap="square" stroke-linejoin="bevel" d="M214.622 224.927C102.977 152.083 36.0114 93.5976 13.7254 49.4695C10.2696 42.6267 5.69445 26.1368 0 0C27.5196 3.65229 44.69 7.14901 51.5115 10.4902C95.8088 32.1871 154.302 99.6591 226.991 212.906C224.021 213.844 217.326 219.707 214.622 224.927Z" sodipodi:nodetypes="cscscc"/><path id="shape03" transform="matrix(0.0979058930244306 0.76609593271383 -0.76609593271383 0.0979058930244306 451.964559480627 106.671549323418)" fill="#000000" fill-rule="evenodd" stroke-opacity="0" stroke="#000000" stroke-width="0" stroke-linecap="square" stroke-linejoin="bevel" d="M214.622 224.927C102.977 152.083 36.0114 93.5976 13.7254 49.4695C10.2696 42.6267 5.69445 26.1368 0 0C27.5196 3.65229 44.69 7.14901 51.5115 10.4902C95.8088 32.1871 154.302 99.6591 226.991 212.906C224.021 213.844 217.326 219.707 214.622 224.927Z" sodipodi:nodetypes="cscscc"/><path id="shape04" transform="matrix(-0.409276443182784 0.654966657769024 -0.654966657769024 -0.409276443182784 547.718669802091 254.723449793955)" fill="#000000" fill-rule="evenodd" stroke-opacity="0" stroke="#000000" stroke-width="0" stroke-linecap="square" stroke-linejoin="bevel" d="M214.622 224.927C102.977 152.083 36.0114 93.5976 13.7254 49.4695C10.2696 42.6267 5.69445 26.1368 0 0C27.5196 3.65229 44.69 7.14901 51.5115 10.4902C95.8088 32.1871 154.302 99.6591 226.991 212.906C224.021 213.844 217.326 219.707 214.622 224.927Z" sodipodi:nodetypes="cscscc"/><path id="shape05" transform="matrix(0.653601552917367 -0.41145291697253 0.41145291697253 0.653601552917367 26.1330516454678 259.838309474456)" fill="#000000" fill-rule="evenodd" stroke-opacity="0" stroke="#000000" stroke-width="0" stroke-linecap="square" stroke-linejoin="bevel" d="M214.622 224.927C102.977 152.083 36.0114 93.5976 13.7254 49.4695C10.2696 42.6267 5.69445 26.1368 0 0C27.5196 3.65229 44.69 7.14901 51.5115 10.4902C95.8088 32.1871 154.302 99.6591 226.991 212.906C224.021 213.844 217.326 219.707 214.622 224.927Z" sodipodi:nodetypes="cscscc"/><rect id="shape1" transform="translate(275.078012173356, 361.687516381535)" fill="#000000" fill-rule="evenodd" stroke="none" stroke-width="22.426875" stroke-linecap="square" stroke-linejoin="bevel" width="25.8129281900279" height="155.912708702887" rx="4.58452133280253" ry="4.74164139945218"/><path id="shape2" transform="translate(275.117299335549, 354.796888598656)" fill="#000000" fill-rule="evenodd" stroke="none" stroke-width="22.426875" stroke-linecap="square" stroke-linejoin="bevel" d="M0.0703125 21.7969L0 0.28125C3.42186 1.85156 7.71092 2.61328 12.8672 2.56641C18.0234 2.51953 22.3359 1.66406 25.8047 0L25.8047 23.2031C25.8047 23.2031 17.2266 22.7344 0.0703125 21.7969Z" sodipodi:nodetypes="cczccc"/>
</svg>
