<?xml version="1.0" standalone="no"?>
<!DOCTYPE svg PUBLIC "-//W3C//DTD SVG 20010904//EN" "http://www.w3.org/TR/2001/REC-SVG-20010904/DTD/svg10.dtd">
<!-- Created using Krita: https://krita.org -->
<svg xmlns="http://www.w3.org/2000/svg"
    xmlns:xlink="http://www.w3.org/1999/xlink"
    width="576pt"
    height="576pt"
    viewBox="0 0 576 576">
    <defs />
    <path id="shape0" transform="translate(59.0624991179699, 143.437498844578)" fill="#000000"
        fill-rule="evenodd" stroke="none" stroke-width="22.5" stroke-linecap="square"
        stroke-linejoin="bevel"
        d="M67.9532 337.569C158.007 385.296 385.921 366.359 395.189 353.473C403.713 274.365 387.133 178.592 466.516 175.156C359.015 134.441 312.275 215.704 306.994 209.855C302.835 205.248 301.322 15.0639 373.984 0.694244C264.857 -14.3529 167.195 220.139 161.449 225.036C157.26 228.607 115.546 138.957 0 184.794C71.1163 179.919 64.4783 305.687 67.9532 337.569Z"
        sodipodi:nodetypes="cccscscc" />
    <ellipse id="shape1" transform="translate(39.9375, 308.25)" rx="19.96875" ry="19.6875"
        cx="19.96875" cy="19.6875" fill="#000000" fill-rule="evenodd" stroke="#000000"
        stroke-width="22.5" stroke-linecap="square" stroke-linejoin="bevel" />
    <ellipse id="shape0"
        transform="matrix(0.99999998060922 0 0 0.99999998060922 411.368915120466 126.125179391963)"
        rx="19.96875" ry="19.6875" cx="19.96875" cy="19.6875" fill="#000000" fill-rule="evenodd"
        stroke="#000000" stroke-width="22.5" stroke-linecap="square" stroke-linejoin="bevel" />
    <ellipse id="shape01"
        transform="matrix(0.999999941920482 0 0 0.999999941920482 504.36282985441 298.937846587066)"
        rx="19.96875" ry="19.6875" cx="19.96875" cy="19.6875" fill="#000000" fill-rule="evenodd"
        stroke="#000000" stroke-width="22.5" stroke-linecap="square" stroke-linejoin="bevel" />
</svg>